<svg width="8" height="8" viewBox="0 0 8 8" fill="none" xmlns="http://www.w3.org/2000/svg">
<path d="M7.59998 3.6H4.40002V0.399976C4.40002 0.179224 4.2208 0 3.99998 0C3.77922 0 3.6 0.179224 3.6 0.399976V3.6H0.399976C0.179224 3.6 0 3.77922 0 3.99998C0 4.2208 0.179224 4.40002 0.399976 4.40002H3.6V7.59998C3.6 7.8208 3.77922 8.00002 3.99998 8.00002C4.2208 8.00002 4.40002 7.8208 4.40002 7.59998V4.40002H7.59998C7.8208 4.40002 8.00002 4.2208 8.00002 3.99998C8.00002 3.77922 7.8208 3.6 7.59998 3.6Z" fill="white"/>
</svg>
